<svg xmlns="http://www.w3.org/2000/svg" width="17.717" height="23.074" viewBox="0 0 17.717 23.074"><path d="M71.192,106.216a6.242,6.242,0,0,0,2.711-5.188,5.878,5.878,0,1,0-11.743,0,6.241,6.241,0,0,0,2.711,5.188,9.315,9.315,0,0,0-5.7,8.69,2.963,2.963,0,0,0,2.884,3.029h11.95a2.963,2.963,0,0,0,2.884-3.029A9.315,9.315,0,0,0,71.192,106.216Zm-7.515-5.188a4.36,4.36,0,1,1,4.355,4.574A4.473,4.473,0,0,1,63.677,101.027Zm10.33,15.315H62.057a1.405,1.405,0,0,1-1.368-1.436,7.351,7.351,0,1,1,14.685,0A1.4,1.4,0,0,1,74.006,116.342Z" transform="translate(-59.173 -94.861)" fill="currentColor"/></svg>