<svg xmlns="http://www.w3.org/2000/svg" width="27.932" height="30" viewBox="0 0 27.932 30">
  <g id="Group_442" data-name="Group 442" transform="translate(-92.556 -216.491)">
    <path id="Path_143" data-name="Path 143" d="M118.341,235H92.973a.479.479,0,0,1,0-.951h25.368a.479.479,0,0,1,0,.951Z" transform="translate(0 -8.956)" fill="#7e7878"/>
    <path id="Path_144" data-name="Path 144" d="M115.115,244.325h-3.181a.449.449,0,0,1-.417-.475v-2.641a.449.449,0,0,1,.417-.475h3.181a.449.449,0,0,1,.417.475v2.641A.449.449,0,0,1,115.115,244.325Zm-2.764-.951H114.7v-1.69h-2.348Z" transform="translate(-10.819 -12.365)" fill="currentColor"/>
    <path id="Path_145" data-name="Path 145" d="M128.86,244.325h-3.181a.449.449,0,0,1-.417-.475v-2.641a.449.449,0,0,1,.417-.475h3.181a.449.449,0,0,1,.417.475v2.641A.449.449,0,0,1,128.86,244.325Zm-2.764-.951h2.348v-1.69H126.1Z" transform="translate(-18.662 -12.365)" fill="currentColor"/>
    <path id="Path_146" data-name="Path 146" d="M142.6,244.325h-3.181a.449.449,0,0,1-.417-.475v-2.641a.449.449,0,0,1,.417-.475H142.6a.449.449,0,0,1,.417.475v2.641A.449.449,0,0,1,142.6,244.325Zm-2.764-.951h2.348v-1.69H139.84Z" transform="translate(-26.504 -12.365)" fill="currentColor"/>
    <path id="Path_147" data-name="Path 147" d="M115.115,254.56h-3.181a.449.449,0,0,1-.417-.475v-2.641a.449.449,0,0,1,.417-.475h3.181a.449.449,0,0,1,.417.475v2.641A.449.449,0,0,1,115.115,254.56Zm-2.764-.951H114.7v-1.69h-2.348Z" transform="translate(-10.819 -17.585)" fill="currentColor"/>
    <path id="Path_148" data-name="Path 148" d="M128.86,254.56h-3.181a.449.449,0,0,1-.417-.475v-2.641a.449.449,0,0,1,.417-.475h3.181a.449.449,0,0,1,.417.475v2.641A.449.449,0,0,1,128.86,254.56Zm-2.764-.951h2.348v-1.69H126.1Z" transform="translate(-18.662 -17.585)" fill="currentColor"/>
    <path id="Path_149" data-name="Path 149" d="M142.6,254.56h-3.181a.449.449,0,0,1-.417-.475v-2.641a.449.449,0,0,1,.417-.475H142.6a.449.449,0,0,1,.417.475v2.641A.449.449,0,0,1,142.6,254.56Zm-2.764-.951h2.348v-1.69H139.84Z" transform="translate(-26.504 -17.585)" fill="currentColor"/>
    <path id="Path_150" data-name="Path 150" d="M115.115,264.795h-3.181a.449.449,0,0,1-.417-.476v-2.641a.449.449,0,0,1,.417-.475h3.181a.449.449,0,0,1,.417.475v2.641A.449.449,0,0,1,115.115,264.795Zm-2.764-.951H114.7v-1.69h-2.348Z" transform="translate(-10.819 -22.805)" fill="currentColor"/>
    <path id="Path_151" data-name="Path 151" d="M128.86,264.795h-3.181a.449.449,0,0,1-.417-.476v-2.641a.449.449,0,0,1,.417-.475h3.181a.449.449,0,0,1,.417.475v2.641A.449.449,0,0,1,128.86,264.795Zm-2.764-.951h2.348v-1.69H126.1Z" transform="translate(-18.662 -22.805)" fill="currentColor"/>
    <path id="Path_152" data-name="Path 152" d="M101.37,254.56H98.19a.449.449,0,0,1-.417-.475v-2.641a.449.449,0,0,1,.417-.475h3.181a.449.449,0,0,1,.417.475v2.641A.449.449,0,0,1,101.37,254.56Zm-2.764-.951h2.348v-1.69H98.606Z" transform="translate(-2.977 -17.585)" fill="currentColor"/>
    <path id="Path_153" data-name="Path 153" d="M101.37,264.795H98.19a.449.449,0,0,1-.417-.476v-2.641a.449.449,0,0,1,.417-.475h3.181a.449.449,0,0,1,.417.475v2.641A.449.449,0,0,1,101.37,264.795Zm-2.764-.951h2.348v-1.69H98.606Z" transform="translate(-2.977 -22.805)" fill="currentColor"/>
    <path id="Path_154" data-name="Path 154" d="M142.6,264.795h-3.181a.449.449,0,0,1-.417-.476v-2.641a.449.449,0,0,1,.417-.475H142.6a.449.449,0,0,1,.417.475v2.641A.449.449,0,0,1,142.6,264.795Zm-2.764-.951h2.348v-1.69H139.84Z" transform="translate(-26.504 -22.805)" fill="currentColor"/>
    <path id="Path_155" data-name="Path 155" d="M107.493,223.569a1.723,1.723,0,0,1-1.6-1.822v-3.433a1.611,1.611,0,1,1,3.194,0v3.433A1.723,1.723,0,0,1,107.493,223.569Zm0-6.127a.824.824,0,0,0-.763.872v3.433a.77.77,0,1,0,1.527,0v-3.433A.824.824,0,0,0,107.493,217.442Z" transform="translate(-7.612 0)" fill="currentColor"/>
    <path id="Path_156" data-name="Path 156" d="M134.39,223.569a1.723,1.723,0,0,1-1.6-1.822v-3.433a1.611,1.611,0,1,1,3.194,0v3.433A1.723,1.723,0,0,1,134.39,223.569Zm0-6.127a.824.824,0,0,0-.764.872v3.433a.771.771,0,1,0,1.528,0v-3.433A.824.824,0,0,0,134.39,217.442Z" transform="translate(-22.959 0)" fill="currentColor"/>
    <path id="Path_157" data-name="Path 157" d="M116.118,248.009H95.194A2.846,2.846,0,0,1,92.556,245V225.754a2.846,2.846,0,0,1,2.638-3.01H98.7a.449.449,0,0,1,.417.475v1.716a.77.77,0,1,0,1.527,0v-1.716a.449.449,0,0,1,.417-.475h9.189a.449.449,0,0,1,.417.475v1.716a.771.771,0,1,0,1.528,0v-1.716a.449.449,0,0,1,.417-.475h3.507a2.846,2.846,0,0,1,2.639,3.01V245A2.847,2.847,0,0,1,116.118,248.009ZM95.194,223.695a1.947,1.947,0,0,0-1.805,2.06V245a1.947,1.947,0,0,0,1.805,2.06h20.924a1.947,1.947,0,0,0,1.805-2.06V225.754a1.947,1.947,0,0,0-1.805-2.06h-3.09v1.241a1.611,1.611,0,1,1-3.194,0v-1.241h-8.356v1.241a1.611,1.611,0,1,1-3.194,0v-1.241Z" transform="translate(0 -3.189)" fill="currentColor"/>
    <path id="Path_158" data-name="Path 158" d="M119.22,251.457H99.388a2.69,2.69,0,0,1-2.495-2.027.5.5,0,0,1,.258-.6.407.407,0,0,1,.53.295,1.84,1.84,0,0,0,1.707,1.387H119.22a3.125,3.125,0,0,0,2.9-3.305v-18a1.994,1.994,0,0,0-1.505-2.032.472.472,0,0,1-.342-.547.427.427,0,0,1,.48-.391,2.914,2.914,0,0,1,2.2,2.97v18A4.024,4.024,0,0,1,119.22,251.457Z" transform="translate(-2.462 -4.966)" fill="currentColor"/>
  </g>
</svg>
