<svg xmlns="http://www.w3.org/2000/svg" width="28.702" height="23.65" viewBox="0 0 28.702 23.65"><g transform="translate(-19.807 -91.832)"><path d="M46.294,132.093H22.022a2.328,2.328,0,0,1-2.215-2.422v-1.429a.7.7,0,0,1,.662-.724H47.847a.7.7,0,0,1,.662.724v1.429A2.328,2.328,0,0,1,46.294,132.093ZM20.6,128.387v1.284a1.494,1.494,0,0,0,1.421,1.554H46.294a1.494,1.494,0,0,0,1.421-1.554v-1.284Z" transform="translate(0 -16.611)" fill="currentColor"/><path d="M48.153,111.776H22.045a.417.417,0,0,1-.4-.434V92.267a.417.417,0,0,1,.4-.435H48.153a.417.417,0,0,1,.4.435v19.075A.417.417,0,0,1,48.153,111.776Zm-25.711-.869H47.756V92.7H22.442Z" transform="translate(-0.941 0)" fill="currentColor"/><path d="M48.242,111.518H25.949a.417.417,0,0,1-.4-.434V96a.417.417,0,0,1,.4-.434H48.242a.417.417,0,0,1,.4.434v15.083A.417.417,0,0,1,48.242,111.518Zm-21.9-.868h21.5V96.435h-21.5Z" transform="translate(-2.938 -1.739)" fill="currentColor"/><path d="M52.88,119.553a.417.417,0,0,1-.4-.434v-2.382a.4.4,0,1,1,.794,0v2.382A.417.417,0,0,1,52.88,119.553Z" transform="translate(-16.708 -11.39)" fill="currentColor"/><path d="M46.954,103.723a2.329,2.329,0,1,1,2.12-2.319A2.229,2.229,0,0,1,46.954,103.723Zm0-3.771a1.457,1.457,0,1,0,1.327,1.451A1.395,1.395,0,0,0,46.954,99.952Z" transform="translate(-12.797 -3.376)" fill="currentColor"/><path d="M44.636,119.553a.417.417,0,0,1-.4-.434v-2.382a.4.4,0,1,1,.794,0v2.382A.417.417,0,0,1,44.636,119.553Z" transform="translate(-12.493 -11.39)" fill="currentColor"/><path d="M48.576,116.095H40.7a.417.417,0,0,1-.4-.434V111.9a2.957,2.957,0,0,1,2.464-3.022.407.407,0,0,1,.439.382.427.427,0,0,1-.349.481,2.113,2.113,0,0,0-1.761,2.159v3.329h7.085V111.9a2.114,2.114,0,0,0-1.761-2.159.427.427,0,0,1-.349-.481.408.408,0,0,1,.439-.382,2.957,2.957,0,0,1,2.464,3.022v3.763A.417.417,0,0,1,48.576,116.095Z" transform="translate(-10.478 -7.932)" fill="currentColor"/><path d="M47.244,130.674h-6.36a1.79,1.79,0,0,1-1.7-1.863v-.858a.417.417,0,0,1,.4-.435H48.55a.417.417,0,0,1,.4.435v.858A1.79,1.79,0,0,1,47.244,130.674Zm-7.27-2.287v.424a.956.956,0,0,0,.909.995h6.36a.956.956,0,0,0,.909-.995v-.424Z" transform="translate(-9.906 -16.611)" fill="currentColor"/></g></svg>