<svg xmlns="http://www.w3.org/2000/svg" width="29.41" height="25.235" viewBox="0 0 29.41 25.235"><g transform="translate(-277.839 -189.876)"><g transform="translate(277.839 189.876)"><path d="M351.95,408.675h7.708a.79.79,0,0,0,.816-.747v-11a.789.789,0,0,0-.816-.747.8.8,0,0,0-.847.747v10.222H340.776V396.579a.8.8,0,0,0-.846-.773h0a.791.791,0,0,0-.817.773v11.349a.79.79,0,0,0,.817.747h12.02Zm-12.02-12.87" transform="translate(-335.081 -383.44)" fill="currentColor"/><path d="M278.078,202.844a.75.75,0,0,0,0,1.1.991.991,0,0,0,.6.2.864.864,0,0,0,.6-.2l13.254-12.209,13.285,12.095a.847.847,0,0,0,1.172,0,.683.683,0,0,0,0-1.068l-13.856-12.644a.868.868,0,0,0-.6-.24.842.842,0,0,0-.57.24l-5.517,5.065v-2.646a.793.793,0,0,0-.818-.772.816.816,0,0,0-.863.772v4.178l-6.688,6.13Zm0,0" transform="translate(-277.839 -189.876)" fill="currentColor"/></g><rect width="5.438" height="7.305" rx="2.719" transform="translate(289.825 207.027)" fill="currentColor"/></g></svg>