<svg xmlns="http://www.w3.org/2000/svg" width="32.736" height="33.059" viewBox="0 0 32.736 33.059">
  <g id="Group_501" data-name="Group 501" transform="translate(-37.219 -649)">
    <g id="Group_436" data-name="Group 436" transform="translate(-80.068 243.177)">
      <path id="Path_1869" data-name="Path 1869" d="M131.18,447.189h-3.007a1.775,1.775,0,0,1-1.737-1.806v-.527a.986.986,0,0,0-.588-.914.931.931,0,0,0-1.055.2l-.358.373a1.688,1.688,0,0,1-2.456,0l-2.126-2.212a1.859,1.859,0,0,1,0-2.555l.359-.373a1.016,1.016,0,0,0,.2-1.078.956.956,0,0,0-.886-.633h-.507a1.774,1.774,0,0,1-1.737-1.807v-3.128a1.775,1.775,0,0,1,1.737-1.807h.507a.947.947,0,0,0,.878-.612,1.024,1.024,0,0,0-.2-1.1l-.358-.372a1.859,1.859,0,0,1,0-2.555l2.126-2.213a1.689,1.689,0,0,1,2.456,0l.358.373a.92.92,0,0,0,1.036.213.993.993,0,0,0,.608-.922v-.527a1.775,1.775,0,0,1,1.737-1.807h1.956a.556.556,0,0,1,0,1.111h-1.956a.684.684,0,0,0-.669.7v.527a2.1,2.1,0,0,1-1.25,1.941,1.963,1.963,0,0,1-2.216-.447l-.358-.373a.666.666,0,0,0-.946,0l-2.126,2.213a.715.715,0,0,0,0,.984l.358.372a2.156,2.156,0,0,1,.437,2.289,2.019,2.019,0,0,1-1.872,1.318h-.507a.684.684,0,0,0-.669.7v3.128a.684.684,0,0,0,.669.7h.507a2.011,2.011,0,0,1,1.865,1.3,2.164,2.164,0,0,1-.429,2.307l-.359.373a.716.716,0,0,0,0,.984l2.126,2.212a.666.666,0,0,0,.946,0l.358-.373a1.957,1.957,0,0,1,2.2-.454,2.1,2.1,0,0,1,1.267,1.948v.527a.684.684,0,0,0,.669.7h3.007a.683.683,0,0,0,.669-.7v-.527a2.1,2.1,0,0,1,1.25-1.941,1.961,1.961,0,0,1,2.217.447l.358.373a.666.666,0,0,0,.946,0l2.126-2.212a.717.717,0,0,0,0-.985l-.358-.372a2.156,2.156,0,0,1-.437-2.288,2.019,2.019,0,0,1,1.872-1.319h.507a.684.684,0,0,0,.669-.7v-.491a.534.534,0,1,1,1.067,0v.491a1.774,1.774,0,0,1-1.736,1.807h-.507a.948.948,0,0,0-.878.613,1.025,1.025,0,0,0,.2,1.1l.358.372a1.86,1.86,0,0,1,0,2.555l-2.126,2.212a1.689,1.689,0,0,1-2.456,0l-.358-.373a.921.921,0,0,0-1.036-.213.992.992,0,0,0-.608.922v.527A1.775,1.775,0,0,1,131.18,447.189Z" transform="translate(0 -8.306)" fill="#7e7878"/>
      <path id="Path_1870" data-name="Path 1870" d="M135.34,447.869a8.1,8.1,0,0,1,0-16.191q.225,0,.447.013a.556.556,0,0,1-.061,1.109c-.128-.008-.256-.011-.386-.011a6.99,6.99,0,1,0,6.712,6.985.534.534,0,1,1,1.067,0A7.951,7.951,0,0,1,135.34,447.869Z" transform="translate(-5.663 -13.783)" fill="#7e7878"/>
      <path id="Path_1871" data-name="Path 1871" d="M138.2,448.211a5.68,5.68,0,0,1,0-11.35,5.336,5.336,0,0,1,.657.041.551.551,0,0,1,.467.617.54.54,0,0,1-.594.486,4.28,4.28,0,0,0-.53-.033,4.568,4.568,0,1,0,4.386,4.565.534.534,0,1,1,1.067,0A5.574,5.574,0,0,1,138.2,448.211Z" transform="translate(-8.521 -16.546)" fill="#7e7878"/>
      <path id="Path_1872" data-name="Path 1872" d="M159.638,424.9h-2.19a1.441,1.441,0,0,1-1.41-1.467v-.384a.567.567,0,0,0-.339-.525.533.533,0,0,0-.61.116l-.261.271a1.4,1.4,0,0,1-1.994,0l-1.548-1.611a1.51,1.51,0,0,1,0-2.075l.261-.272a.583.583,0,0,0,.118-.621.552.552,0,0,0-.512-.367h-.368a1.441,1.441,0,0,1-1.41-1.467v-2.279a1.441,1.441,0,0,1,1.41-1.467h.369a.546.546,0,0,0,.505-.352.59.59,0,0,0-.112-.635l-.261-.272a1.51,1.51,0,0,1,0-2.075l1.548-1.611a1.373,1.373,0,0,1,1.994,0l.261.271a.53.53,0,0,0,.6.123.573.573,0,0,0,.354-.532v-.384a1.441,1.441,0,0,1,1.41-1.467h2.19a1.441,1.441,0,0,1,1.41,1.467v.384a.567.567,0,0,0,.339.525.533.533,0,0,0,.611-.116l.261-.271a1.373,1.373,0,0,1,1.994,0l1.548,1.611a1.508,1.508,0,0,1,0,2.075l-.261.272a.584.584,0,0,0-.118.621.552.552,0,0,0,.512.367h.369a1.441,1.441,0,0,1,1.41,1.467V416.5a1.441,1.441,0,0,1-1.41,1.467h-.369a.546.546,0,0,0-.506.353.59.59,0,0,0,.112.635l.261.272a1.51,1.51,0,0,1,0,2.075l-1.549,1.611a1.4,1.4,0,0,1-1.994,0l-.261-.271a.53.53,0,0,0-.6-.123.574.574,0,0,0-.354.532v.384A1.441,1.441,0,0,1,159.638,424.9Zm-4.165-3.538a1.559,1.559,0,0,1,.621.129,1.68,1.68,0,0,1,1.012,1.558v.384a.35.35,0,0,0,.342.356h2.19a.35.35,0,0,0,.342-.356v-.384a1.677,1.677,0,0,1,1-1.553,1.568,1.568,0,0,1,1.772.359l.261.271a.341.341,0,0,0,.484,0l1.548-1.611a.366.366,0,0,0,0-.5l-.261-.271a1.725,1.725,0,0,1-.349-1.831,1.615,1.615,0,0,1,1.5-1.053h.369a.35.35,0,0,0,.342-.356v-2.279a.35.35,0,0,0-.342-.356h-.369a1.61,1.61,0,0,1-1.492-1.04,1.729,1.729,0,0,1,.344-1.844l.261-.272a.366.366,0,0,0,0-.5L163.5,408.6a.333.333,0,0,0-.484,0l-.261.271a1.562,1.562,0,0,1-1.76.363,1.679,1.679,0,0,1-1.012-1.558v-.384a.35.35,0,0,0-.342-.357h-2.19a.35.35,0,0,0-.342.357v.384a1.676,1.676,0,0,1-1,1.553,1.567,1.567,0,0,1-1.772-.359l-.261-.271a.333.333,0,0,0-.484,0l-1.549,1.611a.367.367,0,0,0,0,.5l.261.272a1.723,1.723,0,0,1,.349,1.83,1.615,1.615,0,0,1-1.5,1.054h-.369a.35.35,0,0,0-.342.356V416.5a.35.35,0,0,0,.342.356h.368a1.609,1.609,0,0,1,1.492,1.041,1.73,1.73,0,0,1-.344,1.844l-.26.271a.366.366,0,0,0,0,.5l1.548,1.611a.341.341,0,0,0,.484,0l.261-.271A1.576,1.576,0,0,1,155.473,421.366Z" transform="translate(-17.69)" fill="#7e7878"/>
      <path id="Path_1873" data-name="Path 1873" d="M162.668,425.4a6.052,6.052,0,1,1,5.811-6.047A5.94,5.94,0,0,1,162.668,425.4Zm0-10.984a4.941,4.941,0,1,0,4.744,4.937A4.849,4.849,0,0,0,162.668,414.415Z" transform="translate(-21.815 -3.988)" fill="#7e7878"/>
      <path id="Path_1874" data-name="Path 1874" d="M165.2,425.7a3.9,3.9,0,1,1,3.747-3.9A3.829,3.829,0,0,1,165.2,425.7Zm0-6.687a2.79,2.79,0,1,0,2.679,2.788A2.739,2.739,0,0,0,165.2,419.017Z" transform="translate(-24.351 -6.441)" fill="#7e7878"/>
    </g>
  </g>
</svg>
