<svg xmlns="http://www.w3.org/2000/svg" width="21.702" height="29.14" viewBox="0 0 21.702 29.14">
  <g id="Group_502" data-name="Group 502" transform="translate(-41.001 -734.553)">
    <g id="Group_426" data-name="Group 426" transform="translate(-309.633 446.614)">
      <path id="Path_1903" data-name="Path 1903" d="M371.115,311.413h-3.883a.608.608,0,0,0-.431.182.633.633,0,0,0-.179.44v3.8H351.854V289.183h19.261v10.426l1.221-1.414v-9.634a.634.634,0,0,0-.179-.44.609.609,0,0,0-.432-.182H351.244a.608.608,0,0,0-.432.182.632.632,0,0,0-.179.44v27.9a.632.632,0,0,0,.179.44.608.608,0,0,0,.432.182h16.75a.6.6,0,0,0,.43-.181l1.882-1.906,0,0,1.849-1.893a.631.631,0,0,0,.178-.439V298.2l-1.221,1.414Zm-3.273,4.443v-3.2h3.251Z" transform="translate(0)" fill="currentColor"/>
      <rect id="Rectangle_191" data-name="Rectangle 191" width="12.585" height="1.847" transform="translate(356.241 295.464)" fill="currentColor"/>
      <rect id="Rectangle_192" data-name="Rectangle 192" width="14.731" height="1.847" transform="translate(354.095 298.527)" fill="currentColor"/>
      <path id="Path_1904" data-name="Path 1904" d="M416.754,543.771v1.847h13.717l1.014-1.175v-.672Z" transform="translate(-62.659 -242.182)" fill="currentColor"/>
      <path id="Path_1905" data-name="Path 1905" d="M416.754,543.771v1.847h13.717l1.014-1.175v-.672Z" transform="translate(-62.659 -238.779)" fill="currentColor"/>
    </g>
  </g>
</svg>
