<svg xmlns="http://www.w3.org/2000/svg" width="25.937" height="22.472" viewBox="0 0 25.937 22.472"><g transform="translate(-561.715 -156.327)"><path d="M573.021,185.655q-3.81.323-7.619.639a.7.7,0,0,0-.675.574.511.511,0,0,0,.12.7c.529.458,1.054.919,1.546,1.407a38.59,38.59,0,0,1-3.466,2.825.622.622,0,0,0-.131.979.6.6,0,0,0,.181.259c1.162,1.007,2.32,2.016,3.434,3.063a.706.706,0,0,0,.942.025.812.812,0,0,0,.119-.069c.915-.651,2.977-2.411,3.815-3.133.406.319.8.653,1.185.989a.711.711,0,0,0,.486.18c.43.178,1.057,0,1.037-.53-.093-2.45-.051-4.9,0-7.352C574.006,185.709,573.443,185.524,573.021,185.655Zm-.487,6.584c-.234-.19-.472-.377-.716-.557a.791.791,0,0,0-.635-.136.712.712,0,0,0-.527.18c-.806.7-2.83,2.436-3.688,3.082-.874-.806-1.771-1.593-2.673-2.376.852-.6,2.84-2.315,3.582-3.025a.591.591,0,0,0-.19-.98.683.683,0,0,0-.112-.157c-.284-.291-.582-.571-.887-.846q2.934-.246,5.867-.492C572.52,188.7,572.5,190.471,572.534,192.24Z" transform="translate(-0.482 -17.498)" fill="currentColor"/><path d="M593.007,166.93q3.811-.3,7.624-.593a.7.7,0,0,0,.68-.57.512.512,0,0,0-.114-.7c-.526-.462-1.047-.925-1.536-1.416a38.791,38.791,0,0,1,3.487-2.8.622.622,0,0,0,.14-.978.6.6,0,0,0-.179-.26c-1.154-1.014-2.3-2.031-3.41-3.084a.7.7,0,0,0-.941-.031.765.765,0,0,0-.12.068c-.919.646-3,2.393-3.841,3.11-.4-.322-.792-.657-1.177-1a.712.712,0,0,0-.485-.182c-.429-.18-1.057-.01-1.041.523.074,2.451.012,4.9-.059,7.352C592.022,166.87,592.584,167.059,593.007,166.93Zm.54-6.581c.232.192.468.38.712.561a.789.789,0,0,0,.633.14.717.717,0,0,0,.528-.177c.811-.692,2.848-2.419,3.712-3.06.869.811,1.76,1.6,2.654,2.392-.856.6-2.858,2.3-3.606,3a.59.59,0,0,0,.182.981.667.667,0,0,0,.111.159c.282.293.578.574.881.851q-2.936.229-5.871.457C593.533,163.887,593.568,162.118,593.548,160.349Z" transform="translate(-16.232)" fill="currentColor"/><path d="M573.26,159.643a.7.7,0,0,0-.663-.585.726.726,0,0,0-.809.1c-.53.458-1.061.913-1.624,1.34a37.646,37.646,0,0,1-3.26-3,.868.868,0,0,0-1.13-.114.741.741,0,0,0-.3.157c-1.162,1.007-2.328,2.01-3.536,2.976a.5.5,0,0,0-.028.816.671.671,0,0,0,.079.1c.752.792,2.783,2.579,3.617,3.306-.369.351-.754.69-1.142,1.027a.539.539,0,0,0-.208.421.605.605,0,0,0,.612.9c2.828-.081,5.657-.044,8.486,0a.613.613,0,0,0,.643-.845C573.748,164.043,573.508,161.843,573.26,159.643Zm-6.863,6.179c.219-.2.435-.409.643-.621a.557.557,0,0,0,.158-.55.533.533,0,0,0-.208-.457c-.8-.7-2.811-2.45-3.557-3.194.93-.758,1.839-1.535,2.742-2.316.694.737,2.673,2.46,3.491,3.1a1.962,1.962,0,0,0,1.314-.262c.336-.246.659-.505.976-.768q.284,2.541.568,5.083C570.48,165.809,568.439,165.791,566.4,165.821Z" transform="translate(0 -0.539)" fill="currentColor"/><path d="M603.113,192.369c-.745-.8-2.762-2.6-3.59-3.327.372-.349.759-.685,1.151-1.02a.539.539,0,0,0,.21-.419.6.6,0,0,0-.6-.9c-2.829.063-5.657.01-8.486-.052a.615.615,0,0,0-.651.841c.23,2.2.454,4.4.684,6.6a.7.7,0,0,0,.658.589.728.728,0,0,0,.81-.1c.533-.454,1.068-.907,1.635-1.33a37.716,37.716,0,0,1,3.236,3.022.867.867,0,0,0,1.13.121.727.727,0,0,0,.3-.155c1.17-1,2.344-2,3.559-2.954a.5.5,0,0,0,.035-.816A.681.681,0,0,0,603.113,192.369ZM598.9,195.1c-.687-.742-2.653-2.477-3.467-3.124a1.98,1.98,0,0,0-1.315.254c-.338.244-.663.5-.983.763q-.263-2.543-.527-5.086c2.042.042,4.084.072,6.126.054-.221.2-.438.406-.647.618a.559.559,0,0,0-.162.549.533.533,0,0,0,.2.457c.8.7,2.792,2.468,3.531,3.216C600.729,193.55,599.816,194.322,598.9,195.1Z" transform="translate(-15.73 -18.116)" fill="currentColor"/></g></svg>