<svg xmlns="http://www.w3.org/2000/svg" width="28.954" height="29.643" viewBox="0 0 28.954 29.643">
  <g id="Group_503" data-name="Group 503" transform="translate(-36.748 -891.671)">
    <g id="Group_392" data-name="Group 392" transform="translate(4 451)">
      <path id="Path_1859" data-name="Path 1859" d="M68.675,102a3.775,3.775,0,0,0,2.143-3.261c0-2.137-2.083-3.875-4.642-3.875s-4.642,1.739-4.642,3.875A3.774,3.774,0,0,0,63.678,102a6,6,0,0,0-4.5,5.461,2.12,2.12,0,0,0,2.28,1.9H70.9a2.12,2.12,0,0,0,2.28-1.9A6,6,0,0,0,68.675,102Zm-5.941-3.261a3.5,3.5,0,1,1,3.443,2.874A3.2,3.2,0,0,1,62.733,98.736ZM70.9,108.36H61.453a1,1,0,0,1-1.081-.9c0-2.672,2.6-4.846,5.8-4.846s5.8,2.174,5.8,4.846A1,1,0,0,1,70.9,108.36Z" transform="translate(-26.425 360.952)" fill="#7e7878"/>
      <path id="Path_1860" data-name="Path 1860" d="M68.744,102.213a3.9,3.9,0,0,0,2.159-3.36c0-2.2-2.1-3.993-4.675-3.993s-4.675,1.791-4.675,3.993a3.894,3.894,0,0,0,2.158,3.36,6.148,6.148,0,0,0-4.537,5.627,2.152,2.152,0,0,0,2.3,1.961h9.516a2.152,2.152,0,0,0,2.3-1.961A6.149,6.149,0,0,0,68.744,102.213Zm-5.985-3.36a3.511,3.511,0,1,1,3.468,2.962A3.249,3.249,0,0,1,62.759,98.854Zm8.226,9.916H61.47a1.02,1.02,0,0,1-1.089-.93c0-2.753,2.623-4.993,5.847-4.993s5.847,2.24,5.847,4.993A1.02,1.02,0,0,1,70.985,108.77Z" transform="translate(-19.358 345.81)" fill="#7e7878"/>
      <path id="Path_1861" data-name="Path 1861" d="M68.544,102.24a3.917,3.917,0,0,0,2.114-3.371,4.619,4.619,0,0,0-9.156,0,3.916,3.916,0,0,0,2.113,3.371,6.141,6.141,0,0,0-4.443,5.647,2.125,2.125,0,0,0,2.249,1.968h9.317a2.125,2.125,0,0,0,2.249-1.968A6.141,6.141,0,0,0,68.544,102.24Zm-5.86-3.371a3.426,3.426,0,1,1,3.4,2.972A3.209,3.209,0,0,1,62.684,98.868Zm8.054,9.951H61.422a1.008,1.008,0,0,1-1.066-.933c0-2.763,2.568-5.011,5.725-5.011s5.725,2.248,5.725,5.011A1.008,1.008,0,0,1,70.739,108.82Z" transform="translate(-11.285 360.459)" fill="#7e7878"/>
    </g>
  </g>
</svg>
