<svg xmlns="http://www.w3.org/2000/svg" width="26.128" height="33" viewBox="0 0 26.128 33">
  <path id="Path_1933" data-name="Path 1933" d="M111.647,92.888a.522.522,0,0,0-.858,0l-.656.829-.689-.87,1.51-1.907a4.491,4.491,0,0,0,0-5.312,2.562,2.562,0,0,0-4.2,0L87.853,109.5a.816.816,0,0,0-.14.275L85.735,116.5a.917.917,0,0,0,.14.809.519.519,0,0,0,.64.177l5.324-2.5a.611.611,0,0,0,.218-.177L105.61,97.69l.689.87-3.618,4.57a.914.914,0,0,0,0,1.084.522.522,0,0,0,.858,0l8.109-10.242A.915.915,0,0,0,111.647,92.888Zm-4.04-6.175a1.515,1.515,0,0,1,2.488,0,2.658,2.658,0,0,1,0,3.144l-1.51,1.907L106.1,88.62ZM105.239,89.7l2.488,3.143-2.118,2.675-2.489-3.143ZM88.522,111.425l2.009,2.538-3.2,1.5Zm3.107,1.756-2.488-3.143,13.122-16.575,2.489,3.143Zm14.839-16.575,2.118-2.675.689.87-2.118,2.676Z" transform="translate(-85.697 -84.53)" fill="currentColor"/>
</svg>
