<svg xmlns="http://www.w3.org/2000/svg" width="45.73" height="34.078" viewBox="0 0 45.73 34.078">
  <g id="Group_500" data-name="Group 500" transform="translate(-36 -566)">
    <g id="Group_435" data-name="Group 435" transform="translate(-231 -758)">
      <path id="Path_110" data-name="Path 110" d="M119.973,535.375l-2.212-1.772a3.054,3.054,0,0,0-3.648,0l-4.25,3.405v-4.991c0-2.06-2.092-3.737-4.663-3.737H79.663c-2.571,0-4.663,1.676-4.663,3.737v26.6c0,2.06,2.092,3.737,4.663,3.737H105.2c2.571,0,4.663-1.676,4.663-3.737V546.4l10.109-8.1A1.79,1.79,0,0,0,119.973,535.375Zm-18.454,15.6L98.3,548.391l12.6-10.094,3.222,2.582Zm-4.173-1.23,2.486,1.992-3.954,1.177ZM108,558.622a2.57,2.57,0,0,1-2.8,2.242H79.663a2.569,2.569,0,0,1-2.8-2.242v-26.6a2.569,2.569,0,0,1,2.8-2.242H105.2a2.57,2.57,0,0,1,2.8,2.242V538.5l-11.681,9.36a.743.743,0,0,0-.208.259s-.006.005-.007.009l-2.683,5.789a.645.645,0,0,0,.215.789,1.1,1.1,0,0,0,.984.172l7.224-2.15.011-.006a.974.974,0,0,0,.324-.167L108,547.894Zm10.656-21.38-3.22,2.58-3.222-2.582,3.22-2.58a.846.846,0,0,1,1.011,0l2.211,1.772A.5.5,0,0,1,118.655,537.242Z" transform="translate(192 795.719)" fill="#707070"/>
      <g id="Group_121" data-name="Group 121" transform="translate(274.306 1330.042)">
        <path id="Path_111" data-name="Path 111" d="M98.813,560.368a.866.866,0,1,0,0,1.728h18.632a.866.866,0,1,0,0-1.728Z" transform="translate(-97.88 -560.368)" fill="#707070"/>
        <path id="Path_112" data-name="Path 112" d="M99.745,561.232a.935.935,0,0,0-1.865,0v17.259a.935.935,0,0,0,1.865,0Z" transform="translate(-97.88 -560.368)" fill="#707070"/>
        <path id="Path_113" data-name="Path 113" d="M98.484,560.368c-.334,0-.6.386-.6.864s.27.864.6.864h12.065c.334,0,.6-.386.6-.864s-.27-.864-.6-.864Z" transform="translate(-97.88 -542.966)" fill="#707070"/>
        <path id="Path_114" data-name="Path 114" d="M99.745,560.839c0-.26-.417-.471-.933-.471s-.932.211-.932.471v9.414c0,.26.417.471.932.471s.933-.211.933-.471Z" transform="translate(-79.094 -560.368)" fill="#707070"/>
      </g>
    </g>
  </g>
</svg>
