<svg xmlns="http://www.w3.org/2000/svg" width="35.941" height="43.994" viewBox="0 0 35.941 43.994">
  <path id="Path_1953" data-name="Path 1953" d="M664.731,821.108l-.179-.11h0l-17.97,11v22l17.79,10.889.18.11h0l17.969-11V832Zm1.671,12.418-1.851,1.133-1.852-1.133,1.852-1.133Zm-1.493-1.353,1.851-1.133,1.851,1.133-1.85,1.132Zm-2.568,1.133-1.85-1.132,1.85-1.133,1.851,1.133Zm-.359.219-1.852,1.134-1.85-1.132,1.852-1.134Zm.359.22,1.851,1.134-1.852,1.134-1.852-1.134Zm2.21,1.353,1.852,1.134-1.852,1.134-1.852-1.134Zm-2.569,1.134-1.853,1.134-1.852-1.134,1.853-1.134Zm.359.22,1.852,1.133-1.853,1.134-1.852-1.134Zm2.21,1.353,1.853,1.134-1.853,1.134-1.854-1.134Zm-2.571,1.134-1.85,1.132-1.852-1.133,1.85-1.132Zm.359.22,1.853,1.134-1.849,1.132-1.853-1.134Zm2.212,1.354,1.849,1.132-1.849,1.132-1.85-1.132Zm-2.567,1.132-1.841,1.127-1.854-1.134,1.841-1.127Zm.359.22L664.193,843l-1.841,1.126-1.85-1.132Zm2.208,1.351,1.841,1.127-1.841,1.127-1.841-1.127Zm-2.558,1.127-1.841,1.127-1.849-1.132,1.841-1.127Zm.358.219,1.841,1.127-1.841,1.127-1.841-1.127Zm2.2,1.346,1.841,1.127-1.841,1.127-1.842-1.127Zm-2.559,1.127-1.84,1.126-1.84-1.127,1.84-1.126Zm.359.219,1.841,1.127-1.84,1.126-1.841-1.127Zm2.2,3.6-1.84-1.127,1.84-1.126,1.84,1.126Zm2.2-.907,1.841,1.127-1.84,1.127-1.841-1.127Zm-6.239,1.127,1.842-1.127,1.84,1.126-1.841,1.127Zm1.482,1.346-1.841,1.127-1.84-1.126,1.841-1.127Zm0-2.692-1.841,1.127-1.842-1.127,1.842-1.127Zm-2.2,1.347-1.841,1.127-1.841-1.127,1.841-1.127Zm-2.2,1.347-1.84,1.126-1.841-1.127,1.84-1.126Zm.358.219,1.841,1.127-1.84,1.126-1.841-1.127Zm2.2,1.346,1.841,1.127-1.84,1.127-1.841-1.127Zm.358-.219,1.841-1.127,1.841,1.127-1.841,1.127Zm2.2-1.347,1.842-1.127,1.841,1.127-1.841,1.127Zm4.041.22,1.841,1.127-1.841,1.127-1.841-1.127Zm.359-.22,1.84-1.127,1.841,1.127-1.841,1.126Zm2.2-1.346,1.841-1.127,1.841,1.127L671.15,852.2Zm-.358-.219-1.842-1.127,1.841-1.127,1.841,1.127Zm-2.2-1.347-1.84-1.126,1.842-1.127,1.84,1.126Zm.36-2.473,1.841-1.126,1.84,1.126-1.84,1.127Zm-.358-.219-1.842-1.127,1.841-1.127,1.841,1.127Zm.358-2.473,1.849-1.132,1.842,1.127-1.85,1.132Zm-.359-.22L664.91,843l1.85-1.132,1.841,1.127Zm.367-2.478,1.854-1.134,1.841,1.127-1.854,1.134Zm-.358-.219-1.85-1.132,1.853-1.134,1.85,1.132Zm.362-2.486,1.852-1.133,1.85,1.132-1.852,1.133Zm-.359-.219-1.853-1.134,1.852-1.133,1.853,1.134Zm.357-2.487,1.852-1.134,1.853,1.134-1.852,1.134Zm-.358-.219-1.852-1.134,1.852-1.134,1.852,1.134Zm.358-2.487,1.85-1.133,1.852,1.134-1.85,1.132Zm2.209-1.352,1.852-1.134,1.853,1.134-1.852,1.134Zm-.358-.22-1.851-1.133,1.852-1.133,1.851,1.132Zm-2.209-1.353-1.851-1.133,1.851-1.133,1.852,1.133Zm-.359.219-1.851,1.133L662.7,830.82l1.851-1.133Zm-4.061-.219-1.851-1.133,1.852-1.133,1.85,1.133Zm-.358.22-1.851,1.133-1.852-1.134,1.851-1.132Zm-2.209,1.353-1.852,1.134-1.852-1.134,1.853-1.134Zm-2.21,1.353-1.853,1.134-1.852-1.134,1.853-1.134Zm.358.219,1.85,1.132-1.854,1.134-1.849-1.132Zm-.362,2.486-1.85,1.132-1.849-1.132,1.85-1.132Zm.358.22,1.852,1.134-1.85,1.132-1.853-1.134Zm-.356,2.486-1.841,1.127-1.853-1.134,1.841-1.127Zm.358.219,1.852,1.133-1.841,1.126-1.851-1.133Zm-.348,2.479-1.842,1.127-1.851-1.133,1.841-1.127Zm.358.219,1.854,1.134-1.842,1.127-1.853-1.134Zm-.346,2.481-1.839,1.126-1.854-1.135,1.839-1.126Zm.358.22,1.85,1.132-1.84,1.126-1.849-1.132Zm-.349,2.477-1.841,1.127-1.849-1.132,1.841-1.127Zm.359.219,1.84,1.127-1.841,1.127-1.84-1.127Zm-.36,2.473-1.841,1.127-1.84-1.127,1.841-1.127Zm-2.2,1.347-1.839,1.126-1.84-1.127,1.839-1.125Zm-2.2,1.345-1.84,1.127-1.84-1.127,1.841-1.127Zm.358.22,1.841,1.127-1.84,1.126-1.842-1.127Zm2.2,1.347,1.841,1.127-1.839,1.126-1.841-1.127Zm2.2,1.347,1.841,1.127-1.839,1.126-1.842-1.127Zm2.2,1.347,1.841,1.127-1.838,1.125-1.841-1.127Zm.358-.22,1.84-1.126,1.841,1.127-1.84,1.127Zm2.2-1.346,1.842-1.127,1.841,1.127-1.841,1.127Zm4.041.22,1.84,1.126-1.841,1.127-1.84-1.127Zm.359-.22,1.841-1.127,1.84,1.126-1.841,1.127Zm2.2-1.346,1.841-1.127,1.84,1.126-1.841,1.127Zm2.2-1.346,1.842-1.127,1.839,1.126-1.841,1.127Zm2.2-1.347,1.84-1.127,1.839,1.125-1.84,1.127Zm-.358-.22-1.842-1.127,1.84-1.126,1.841,1.127Zm-2.2-1.346-1.842-1.127,1.841-1.127,1.841,1.127Zm.358-2.473,1.849-1.132,1.841,1.127-1.849,1.132Zm-.358-.22-1.84-1.126,1.849-1.132L673,845.682Zm.368-2.477,1.854-1.134,1.839,1.126-1.853,1.135Zm-.358-.219-1.841-1.127,1.854-1.134,1.842,1.127Zm.371-2.481,1.852-1.133,1.841,1.127-1.851,1.133Zm-.358-.22-1.841-1.126,1.852-1.133,1.841,1.127Zm.369-2.479,1.852-1.134,1.841,1.127-1.853,1.134Zm-.359-.22-1.85-1.132,1.852-1.134,1.85,1.132Zm.361-2.486,1.85-1.132,1.85,1.132-1.849,1.132Zm-.358-.219-1.853-1.134,1.85-1.132,1.853,1.134Zm.355-2.486,1.852-1.134,1.853,1.134-1.852,1.134Zm2.211-1.353,1.852-1.133,1.853,1.134-1.851,1.133Zm-.359-.219-1.852-1.134,1.852-1.133,1.853,1.134ZM671.18,830.6l-1.851-1.133,1.852-1.133,1.85,1.132Zm-2.209-1.352-1.852-1.133,1.852-1.134,1.852,1.134ZM666.76,827.9l-1.85-1.132,1.853-1.134,1.85,1.133Zm-.358.22-1.85,1.133-1.851-1.133,1.851-1.133Zm-4.06-.22-1.852-1.134,1.85-1.133,1.853,1.134Zm-.359.22-1.852,1.133-1.852-1.134,1.852-1.134Zm-2.21,1.353-1.851,1.133-1.852-1.134,1.85-1.132Zm-2.209,1.352-1.853,1.134-1.852-1.134,1.853-1.134Zm-2.211,1.353-1.853,1.134-1.852-1.133,1.853-1.134Zm-2.212,1.354-1.85,1.132-1.852-1.133,1.85-1.132Zm.359.219,1.852,1.134-1.85,1.133-1.853-1.134Zm-.356,2.486-1.841,1.127-1.853-1.135,1.841-1.127Zm.358.22,1.849,1.132-1.841,1.127-1.849-1.132Zm-.351,2.478-1.841,1.127-1.849-1.132L651.3,837.8Zm.358.219,1.853,1.134-1.841,1.127-1.853-1.134Zm-.347,2.481-1.839,1.126-1.854-1.134,1.839-1.126Zm.359.219,1.851,1.133-1.839,1.126-1.851-1.133Zm-.346,2.478-1.841,1.127-1.851-1.133,1.841-1.127Zm.358.22,1.853,1.134-1.841,1.127-1.854-1.135Zm-.346,2.481-1.841,1.127-1.854-1.135,1.842-1.127Zm.359.22,1.849,1.132-1.841,1.127-1.849-1.132Zm-.351,2.478-1.839,1.126-1.849-1.132,1.839-1.125Zm-2.2,1.345-1.841,1.127-1.849-1.132,1.841-1.127Zm-2.2,1.346-1.5.917V851.5Zm.358.22L651,853.763l-1.678,1.027-1.84-1.126Zm2.2,1.346,1.841,1.127-1.678,1.027-1.841-1.127Zm2.2,1.346,1.841,1.127-1.678,1.027-1.841-1.127Zm2.2,1.346L657.6,857.8l-1.678,1.027-1.842-1.127Zm2.2,1.347,1.842,1.127-1.678,1.027-1.841-1.127Zm2.2,1.346L662,860.495l-1.678,1.028-1.841-1.127Zm.358-.22,1.838-1.125,1.84,1.126-1.837,1.125Zm2.2-1.344,1.84-1.127,1.84,1.127-1.84,1.127Zm4.039.219,1.838,1.125-1.841,1.127-1.837-1.125Zm.359-.219,1.841-1.127,1.839,1.125-1.842,1.127Zm2.2-1.347,1.841-1.127,1.839,1.126-1.842,1.127Zm2.2-1.347,1.84-1.127,1.84,1.126-1.841,1.127Zm2.2-1.347,1.841-1.127,1.84,1.126-1.841,1.127Zm2.2-1.347,1.84-1.127,1.841,1.127-1.841,1.127Zm2.2-1.346,1.849-1.132,1.841,1.127-1.849,1.132Zm-.358-.219-1.839-1.126,1.849-1.132,1.839,1.125Zm-2.2-1.345-1.842-1.127,1.849-1.132,1.841,1.127Zm.366-2.479,1.854-1.134,1.842,1.127-1.854,1.135Zm-.358-.219-1.842-1.127,1.854-1.134,1.841,1.127Zm.371-2.481,1.851-1.133,1.841,1.127-1.851,1.133Zm-.359-.219-1.839-1.126,1.851-1.133,1.839,1.126Zm.371-2.478,1.854-1.134,1.839,1.126-1.853,1.134Zm-.358-.22-1.842-1.127,1.853-1.134,1.841,1.127Zm.37-2.48L677.8,837.8l1.841,1.127-1.848,1.132Zm-.359-.22-1.841-1.127,1.849-1.132,1.841,1.127Zm.367-2.478,1.853-1.134,1.841,1.127-1.853,1.135Zm-.359-.219-1.85-1.133,1.853-1.134,1.85,1.132Zm.361-2.486,1.852-1.133,1.85,1.132-1.852,1.133Zm2.21-1.353,1.6-.98,1.85,1.133-1.6.98Zm-.358-.219-1.853-1.134,1.6-.98,1.853,1.134ZM675.6,830.6l-1.852-1.134,1.6-.98,1.853,1.134Zm-2.211-1.353-1.85-1.132,1.6-.98,1.85,1.132Zm-2.208-1.352-1.853-1.134,1.6-.98,1.853,1.134Zm-2.211-1.353-1.85-1.133,1.6-.98,1.85,1.132Zm-2.209-1.352-1.853-1.134,1.6-.98,1.853,1.134Zm-.358.219-1.853,1.134L662.7,825.41l1.853-1.134Zm-4.064-.22-1.6-.98,1.853-1.134,1.6.98Zm-.358.22-1.85,1.133-1.6-.98,1.85-1.132Zm-2.209,1.352-1.852,1.134-1.6-.98,1.853-1.134Zm-2.211,1.353-1.85,1.133-1.6-.98,1.85-1.132Zm-2.209,1.352L653.5,830.6l-1.6-.98,1.853-1.134Zm-2.211,1.353-1.853,1.134-1.6-.98,1.853-1.134Zm-2.212,1.354-1.85,1.132-1.6-.98,1.85-1.133Zm-2.209,1.352-1.422.87v-1.74Zm.358.219,1.851,1.133-1.841,1.127-1.79-1.1v-.075Zm-.349,2.479-1.432.876v-1.753Zm.359.22,1.853,1.134-1.841,1.127-1.8-1.1v-.063Zm-.346,2.481-1.444.884v-1.768Zm.358.219,1.848,1.131-1.839,1.125-1.812-1.109v-.043Zm-.349,2.476-1.453.889v-1.779Zm.359.219,1.853,1.134-1.841,1.127-1.824-1.117v-.036Zm-.346,2.481-1.466.9v-1.794Zm.358.219,1.851,1.133-1.842,1.127-1.833-1.123v-.021Zm-.349,2.479-1.475.9v-1.806Zm.358.219,1.854,1.135-1.839,1.125-1.849-1.132v-.006Zm-.343,2.48-1.49.912v-1.824Zm11.887,12.022,1.678-1.028,1.837,1.125-1.679,1.027Zm2.037-1.247,1.837-1.125,1.837,1.125-1.837,1.124Zm4.033.219,1.678,1.028-1.836,1.124-1.679-1.027Zm.359-.219,1.841-1.127,1.678,1.027-1.841,1.127Zm2.2-1.346,1.841-1.127,1.678,1.027-1.841,1.127Zm2.2-1.347,1.841-1.127,1.678,1.027-1.841,1.127Zm2.2-1.346,1.841-1.127,1.678,1.027-1.841,1.127Zm2.2-1.346,1.841-1.127,1.678,1.026-1.841,1.127Zm2.2-1.347,1.84-1.126,1.677,1.026-1.84,1.126Zm2.2-1.346,1.5-.917v1.833Zm.008-2.7,1.49-.912v1.824Zm-.359-.22-1.839-1.125,1.854-1.135,1.833,1.123v.006Zm.374-2.479,1.475-.9v1.806Zm-.358-.219-1.841-1.127,1.851-1.133,1.824,1.117v.021Zm.368-2.479,1.466-.9v1.794Zm-.358-.22-1.841-1.127,1.853-1.134,1.812,1.109v.036Zm.371-2.481,1.453-.89v1.779Zm-.359-.22-1.839-1.125L680,839.145l1.8,1.1v.043Zm.368-2.476,1.444-.884v1.768Zm-.359-.22-1.841-1.127,1.854-1.134,1.79,1.1v.063Zm.371-2.481,1.432-.876V837.1Zm-.359-.219-1.841-1.127,1.851-1.133,1.78,1.09v.075Zm.369-2.479,1.422-.87v1.74Zm-14.228-10.669-1.6.98-1.6-.98,1.6-.98Zm-3.28,40.229,1.679-1.028,1.679,1.028-1.679,1.028Z" transform="translate(-646.581 -820.998)" fill="currentColor"/>
</svg>
