<svg xmlns="http://www.w3.org/2000/svg" width="25.975" height="30.252" viewBox="0 0 25.975 30.252">
  <g id="Group_426" data-name="Group 426" transform="translate(-350.634 -287.939)">
    <path id="Path_1903" data-name="Path 1903" d="M375.148,312.31H370.5a.787.787,0,0,0-.516.189.615.615,0,0,0-.215.457V316.9H352.095V289.231h23.053v10.824l1.461-1.468v-10a.616.616,0,0,0-.214-.457.789.789,0,0,0-.517-.189H351.365a.787.787,0,0,0-.517.189.614.614,0,0,0-.214.457v28.961a.614.614,0,0,0,.214.457.787.787,0,0,0,.517.189h20.049a.782.782,0,0,0,.514-.188l2.252-1.979,0,0,2.213-1.965a.613.613,0,0,0,.213-.456V298.587l-1.461,1.468Zm-3.918,4.613V313.6h3.891Z" transform="translate(0 0)" fill="currentColor"/>
    <rect id="Rectangle_191" data-name="Rectangle 191" width="15.063" height="1.918" transform="translate(357.345 295.751)" fill="currentColor"/>
    <rect id="Rectangle_192" data-name="Rectangle 192" width="17.632" height="1.918" transform="translate(354.776 298.931)" fill="currentColor"/>
    <path id="Path_1904" data-name="Path 1904" d="M416.754,543.771v1.918h16.418l1.214-1.22v-.7Z" transform="translate(-61.977 -241.661)" fill="currentColor"/>
    <path id="Path_1905" data-name="Path 1905" d="M416.754,543.771v1.918h16.418l1.214-1.22v-.7Z" transform="translate(-61.978 -238.128)" fill="currentColor"/>
  </g>
</svg>
