<svg xmlns="http://www.w3.org/2000/svg" width="28.021" height="27.708" viewBox="0 0 28.021 27.708">
  <g id="Group_428" data-name="Group 428" transform="translate(-153.525 -253.971)">
    <g id="Group_427" data-name="Group 427" transform="translate(153.525 253.971)">
      <path id="Path_1906" data-name="Path 1906" d="M169.977,258.94a3.7,3.7,0,0,0-.551-.485l-.34-.253-.395-.226a6.01,6.01,0,0,0-.9-.409,6.832,6.832,0,0,0-1.03-.264,6.573,6.573,0,0,0-3.226.264,6.142,6.142,0,0,0-.9.41c-.136.077-.27.149-.395.224l-.34.255a3.8,3.8,0,0,0-.555.486,2.593,2.593,0,0,0-.369.416c-.184.244-.282.39-.282.39s.157-.083.421-.239a4.242,4.242,0,0,1,.477-.258,6.751,6.751,0,0,1,.616-.29l.355-.15.389-.134c.259-.107.557-.147.842-.241.3-.052.6-.119.917-.143.312-.047.632-.044.951-.061a9.293,9.293,0,0,1,.951.062c.314.025.618.092.917.143.285.094.583.135.842.242a7.172,7.172,0,0,1,.744.284,6.585,6.585,0,0,1,.62.292,4.484,4.484,0,0,1,.474.255c.26.154.42.237.42.237s-.1-.143-.284-.39A2.675,2.675,0,0,0,169.977,258.94Z" transform="translate(-156.018 -255.118)" fill="currentColor"/>
      <path id="Path_1907" data-name="Path 1907" d="M173.317,271.387a.888.888,0,0,0-.911-.2l-1.714-1.694a9.472,9.472,0,0,0-.7-12.722,9.727,9.727,0,0,0-13.648,0,9.475,9.475,0,0,0,0,13.493,9.728,9.728,0,0,0,12.868.688l1.714,1.7a.861.861,0,0,0,.206.9l5.949,5.88,2.181-2.156Zm-16.232-1.857a8.452,8.452,0,0,1,0-12.035,8.679,8.679,0,0,1,12.172,0,8.452,8.452,0,0,1,0,12.035,8.679,8.679,0,0,1-12.172,0Z" transform="translate(-153.525 -253.971)" fill="currentColor"/>
      <path id="Path_1909" data-name="Path 1909" d="M0,0,3.066.017l.007,1.175L.007,1.175Z" transform="matrix(0.707, -0.707, 0.707, 0.707, 23.981, 25.869)" fill="currentColor"/>
      <path id="Path_1908" data-name="Path 1908" d="M194.735,293l-.344-.34-2.181,2.156.345.34a.886.886,0,0,0,1.245,0l.934-.923A.865.865,0,0,0,194.735,293Z" transform="translate(-166.972 -267.707)" fill="currentColor"/>
    </g>
  </g>
</svg>
