<svg xmlns="http://www.w3.org/2000/svg" width="26.702" height="25.3" viewBox="0 0 26.702 25.3"><g transform="translate(-276.555 -280.033)"><g transform="translate(276.555 299.269)"><path d="M300.424,320.613H279.387a3.039,3.039,0,1,1,2.833-3.032,1.655,1.655,0,1,1-3.3,0,.47.47,0,1,1,.937,0,.715.715,0,1,0,1.427,0,1.9,1.9,0,1,0-1.9,2.029h21.037a2.033,2.033,0,1,0-1.9-2.029.715.715,0,1,0,1.427,0,.47.47,0,1,1,.938,0,1.655,1.655,0,1,1-3.3,0,2.839,2.839,0,1,1,2.833,3.032Z" transform="translate(-276.555 -314.549)" fill="currentColor"/></g><g transform="translate(283.546 280.033)"><g transform="translate(4.963 6.172)"><path d="M302.1,295.683h-2.121a.486.486,0,0,1-.469-.5V291.61a.486.486,0,0,1,.469-.5H302.1a.487.487,0,0,1,.469.5v3.571A.486.486,0,0,1,302.1,295.683Zm-1.653-1h1.184v-2.568h-1.184Z" transform="translate(-299.515 -291.108)" fill="currentColor"/></g><g transform="translate(6.024)"><path d="M302.022,283.165a.486.486,0,0,1-.469-.5v-2.128a.47.47,0,1,1,.937,0v2.128A.486.486,0,0,1,302.022,283.165Z" transform="translate(-301.553 -280.033)" fill="currentColor"/></g><g transform="translate(4.135 2.129)"><path d="M300.281,288.9a2.529,2.529,0,1,1,2.358-2.523A2.447,2.447,0,0,1,300.281,288.9Zm0-4.044a1.523,1.523,0,1,0,1.421,1.52A1.474,1.474,0,0,0,300.281,284.856Z" transform="translate(-297.924 -283.853)" fill="currentColor"/></g><g transform="translate(1.186 7.958)"><path d="M292.728,305.465a.486.486,0,0,1-.469-.5v-3.208a.531.531,0,0,1,.064-.253l3.778-6.941a.451.451,0,0,1,.64-.181.521.521,0,0,1,.169.686l-3.713,6.824v3.073A.486.486,0,0,1,292.728,305.465Z" transform="translate(-292.259 -294.313)" fill="currentColor"/></g><g transform="translate(7.084 7.958)"><path d="M307.836,305.465a.486.486,0,0,1-.469-.5v-3.073l-3.714-6.824a.521.521,0,0,1,.169-.686.452.452,0,0,1,.641.181l3.778,6.941a.531.531,0,0,1,.064.253v3.208A.486.486,0,0,1,307.836,305.465Z" transform="translate(-303.589 -294.313)" fill="currentColor"/></g><g transform="translate(0 15.804)"><path d="M290.451,310.793a.486.486,0,0,1-.469-.5v-1.4a.47.47,0,1,1,.938,0v1.4A.486.486,0,0,1,290.451,310.793Z" transform="translate(-289.982 -308.391)" fill="currentColor"/></g></g><g transform="translate(281.184 299.269)"><path d="M285.914,318.563a.439.439,0,0,1-.2-.048.516.516,0,0,1-.224-.667l1.328-3.011a.455.455,0,0,1,.623-.239.516.516,0,0,1,.224.667l-1.328,3.01A.466.466,0,0,1,285.914,318.563Z" transform="translate(-285.445 -314.549)" fill="currentColor"/></g><g transform="translate(296.363 299.268)"><path d="M316.4,318.563a.468.468,0,0,1-.424-.288l-1.328-3.01a.517.517,0,0,1,.224-.667.454.454,0,0,1,.623.239l1.328,3.011a.516.516,0,0,1-.223.667A.44.44,0,0,1,316.4,318.563Z" transform="translate(-314.6 -314.549)" fill="currentColor"/></g><g transform="translate(276.933 292.272)"><path d="M277.749,311.153a.444.444,0,0,1-.246-.075.522.522,0,0,1-.153-.69l4.2-7.3a2.12,2.12,0,0,1,1.839-1.1h1.234a.5.5,0,0,1,0,1h-1.234a1.219,1.219,0,0,0-1.042.622l-4.2,7.3A.463.463,0,0,1,277.749,311.153Z" transform="translate(-277.28 -301.994)" fill="currentColor"/></g><g transform="translate(295.064 292.272)"><path d="M319.5,311.228a.463.463,0,0,1-.4-.239l-4.246-7.37a1.218,1.218,0,0,0-1.042-.622h-1.234a.5.5,0,0,1,0-1h1.234a2.12,2.12,0,0,1,1.839,1.1l4.246,7.37a.522.522,0,0,1-.153.69A.442.442,0,0,1,319.5,311.228Z" transform="translate(-312.105 -301.994)" fill="currentColor"/></g></g></svg>